<svg width="80" height="72" viewBox="0 0 80 72" fill="none" xmlns="http://www.w3.org/2000/svg">
<rect width="80" height="72" rx="8" fill="#EDF5F6"/>
<path d="M29 24V39C29 39.7956 29.3161 40.5587 29.8787 41.1213C30.4413 41.6839 31.2044 42 32 42H35M29 24H27M29 24H51M35 42H45M35 42L33.6667 46M51 24H53M51 24V39C51 39.7956 50.6839 40.5587 50.1213 41.1213C49.5587 41.6839 48.7957 42 48 42H45M45 42L46.3333 46M33.6667 46H46.3333M33.6667 46L33 48M46.3333 46L47 48M36 35V37M40 32V37M44 29V37" stroke="#19585C" stroke-width="2" stroke-linecap="round" stroke-linejoin="round"/>
</svg>
