<svg width="43" height="40" viewBox="0 0 43 40" fill="none" xmlns="http://www.w3.org/2000/svg">
<path d="M0 4C0 1.79086 1.79086 0 4 0H39C41.2091 0 43 1.79086 43 4V36C43 38.2091 41.2091 40 39 40H4C1.79086 40 0 38.2091 0 36V4Z" fill="#EDF5F6"/>
<path d="M12.25 14.75C12.25 23.034 18.966 29.75 27.25 29.75H29.5C30.0967 29.75 30.669 29.5129 31.091 29.091C31.5129 28.669 31.75 28.0967 31.75 27.5V26.128C31.75 25.612 31.399 25.162 30.898 25.037L26.475 23.931C26.035 23.821 25.573 23.986 25.302 24.348L24.332 25.641C24.05 26.017 23.563 26.183 23.122 26.021C21.4849 25.4191 19.9982 24.4686 18.7648 23.2352C17.5314 22.0018 16.5809 20.5151 15.979 18.878C15.817 18.437 15.983 17.95 16.359 17.668L17.652 16.698C18.015 16.427 18.179 15.964 18.069 15.525L16.963 11.102C16.9021 10.8587 16.7617 10.6427 16.5641 10.4883C16.3664 10.334 16.1228 10.2501 15.872 10.25H14.5C13.9033 10.25 13.331 10.4871 12.909 10.909C12.4871 11.331 12.25 11.9033 12.25 12.5V14.75Z" fill="#023E44" stroke="#023E44" stroke-width="1.5" stroke-linecap="round" stroke-linejoin="round"/>
</svg>
