<svg width="43" height="40" viewBox="0 0 43 40" fill="none" xmlns="http://www.w3.org/2000/svg">
<rect width="43" height="40" rx="4" fill="#EDF5F6"/>
<path d="M29.5 18.5C29.5 25.642 22 29.75 22 29.75C22 29.75 14.5 25.642 14.5 18.5C14.5 16.5109 15.2902 14.6032 16.6967 13.1967C18.1032 11.7902 20.0109 11 22 11C23.9891 11 25.8968 11.7902 27.3033 13.1967C28.7098 14.6032 29.5 16.5109 29.5 18.5Z" fill="#023E44" stroke="#023E44" stroke-width="1.5" stroke-linecap="round" stroke-linejoin="round"/>
<path d="M25 18.5C25 19.2956 24.6839 20.0587 24.1213 20.6213C23.5587 21.1839 22.7956 21.5 22 21.5C21.2044 21.5 20.4413 21.1839 19.8787 20.6213C19.3161 20.0587 19 19.2956 19 18.5C19 17.7044 19.3161 16.9413 19.8787 16.3787C20.4413 15.8161 21.2044 15.5 22 15.5C22.7956 15.5 23.5587 15.8161 24.1213 16.3787C24.6839 16.9413 25 17.7044 25 18.5Z" fill="#EDF5F6" stroke="#EDF5F6" stroke-width="1.5" stroke-linecap="round" stroke-linejoin="round"/>
</svg>
