<svg width="126" height="48" viewBox="0 0 126 48" fill="none" xmlns="http://www.w3.org/2000/svg">
<path d="M46.2739 27.4089L35.4833 34.2907C35.4828 34.291 35.4824 34.2913 35.4819 34.2916C33.9977 35.2413 32.4221 35.8087 30.7861 35.8087H29.7566C29.0311 35.8087 28.0937 35.6979 27.3132 35.1268L27.2737 35.0979L27.2357 35.0671C26.2766 34.2906 26.0805 33.178 26.261 32.2439L27.5041 24.9266L16.3041 37.8108C15.7343 38.4662 14.9084 38.8426 14.0399 38.8426H10.1943C7.62142 38.8426 6.2422 35.8162 7.93017 33.8744L29.5255 9.03182C30.0953 8.37637 30.9211 8 31.7896 8H36.9226C37.2577 8 37.5666 8.00661 37.845 8.02126M46.2739 27.4089L37.845 8.02126M46.2739 27.4089L40.6536 33.8744C38.9656 35.8162 40.3448 38.8426 42.9177 38.8426H46.7633C47.6318 38.8426 48.4577 38.4662 49.0275 37.8108L70.6228 12.9682C72.3108 11.0264 70.9315 8 68.3587 8H64.9642C64.6136 8 64.2892 8.00659 63.9939 8.02081L63.9874 8.02115C63.6197 8.04008 63.2563 8.09554 62.8991 8.1824C62.5224 8.26809 62.1562 8.40171 61.8084 8.55895C61.4261 8.72415 61.0404 8.93935 60.6586 9.18235L60.6543 9.18513L38.4662 23.3913M46.2739 27.4089L38.4662 23.3913M37.845 8.02126C38.1488 8.03725 38.5303 8.08439 38.914 8.22751C38.977 8.25101 39.0661 8.28534 39.1652 8.3297C39.494 8.47696 39.8472 8.71891 40.1272 9.09815C40.3573 9.40981 40.4781 9.72567 40.544 9.9668C40.6754 10.4468 40.6427 10.8889 40.5904 11.2005L40.5883 11.2128L40.5883 11.2128L38.4662 23.3913M37.845 8.02126L38.4662 23.3913M55.7632 18.985L55.9155 19.13L56.0412 19.2497L55.9234 19.1424L55.7557 18.9897L55.7632 18.985ZM56.8244 38.8426H61.5769C62.4454 38.8426 63.2713 38.4662 63.8411 37.8108L85.4364 12.9682C87.1244 11.0264 85.7452 8 83.1723 8H78.4197C77.5512 8 76.7254 8.37637 76.1556 9.03182L54.5602 33.8744C52.8723 35.8162 54.2515 38.8426 56.8244 38.8426ZM100.581 19.7656H94.3687L97.3401 16.3474H111.219C112.088 16.3474 112.914 15.971 113.483 15.3155L115.524 12.9682C117.212 11.0264 115.833 8 113.26 8H93.2609C92.3924 8 91.5666 8.37637 90.9968 9.03182L69.4014 33.8744C67.7135 35.8162 69.0927 38.8426 71.6656 38.8426H76.4181C77.2866 38.8426 78.1125 38.4662 78.6823 37.8108L87.0964 28.1315H98.5244C99.3929 28.1315 100.219 27.7551 100.789 27.0996L102.845 24.7338C104.533 22.792 103.154 19.7656 100.581 19.7656Z" fill="#023E44" stroke="#023E44" stroke-width="4"/>
<g filter="url(#filter0_d_2115_4630)">
<mask id="path-2-outside-1_2115_4630" maskUnits="userSpaceOnUse" x="5" y="4.99951" width="111" height="31" fill="black">
<rect fill="white" x="5" y="4.99951" width="111" height="31"/>
<path fill-rule="evenodd" clip-rule="evenodd" d="M34.8778 27.1123C35.0713 27.7205 35.7896 27.9624 36.3277 27.6192L41.7767 24.144C41.9951 24.0048 42.1498 23.7859 42.2154 23.5354C42.345 23.0402 42.4931 22.5525 42.659 22.073C43.0068 21.0676 41.7366 19.9083 40.8406 20.4819L38.2634 22.132C37.5777 22.5637 36.8923 23.0138 36.2071 23.4825C35.739 23.8104 35.2696 24.1445 34.799 24.4845C34.4753 24.7184 34.3226 25.1241 34.4207 25.5112C34.5575 26.0513 34.71 26.5852 34.8778 27.1123ZM33.9874 23.4871C34.0529 23.86 34.5352 23.8859 34.6306 23.5195V23.5195C34.7659 23.0631 34.8658 22.6192 34.9306 22.1875L37.4256 7.86898C37.4509 7.71869 37.4498 7.59375 37.4226 7.49416C37.4023 7.42013 37.3714 7.34729 37.3258 7.28555C37.2856 7.23106 37.2288 7.18739 37.1554 7.15453C37.1118 7.13502 37.0672 7.11755 37.0225 7.10086C36.9022 7.05595 36.7438 7.02834 36.5476 7.01801V7.01801C36.263 7.00304 36.0013 7.16966 35.8874 7.4309C34.3934 10.8563 33.5649 14.6384 33.5649 18.6141C33.5649 20.2762 33.7097 21.9045 33.9874 23.4871ZM88.8809 12.4357C88.7074 11.6653 87.743 11.4512 87.225 12.0472L80.2765 20.0404C80.022 20.3332 79.9619 20.746 80.1076 21.1056C80.5801 22.2714 80.9459 23.4919 81.1928 24.7549C81.3635 25.6278 82.5045 25.9932 83.088 25.3219L84.6936 23.4749C84.8835 23.2564 85.1588 23.131 85.4483 23.131H88.3515C88.842 23.131 89.2621 22.7755 89.3258 22.2891C89.4668 21.2138 89.5468 20.1193 89.5621 19.0092C89.564 18.8746 89.455 18.7651 89.3204 18.7651V18.7651C89.1122 18.7651 89.0006 18.5202 89.1372 18.3631L89.44 18.0148C89.5143 17.9293 89.554 17.8191 89.5504 17.7059C89.4929 15.9008 89.2645 14.1389 88.8809 12.4357ZM92.9566 13.9694C92.3801 14.6326 91.2678 14.2849 91.1167 13.4192C90.8799 12.0625 90.5519 10.7371 90.1393 9.44962C90.0305 9.11013 90.1022 8.73732 90.3361 8.46827L91.3138 7.34345C91.5038 7.12497 91.7791 6.99951 92.0686 6.99951H112.068C112.925 6.99951 113.385 8.00831 112.822 8.65557L110.782 11.0029C110.592 11.2214 110.316 11.3469 110.027 11.3469H95.692C95.4026 11.3469 95.1273 11.4723 94.9373 11.6908L92.9566 13.9694ZM92.5596 18.7651C92.0092 18.7651 91.564 19.21 91.5434 19.7599C91.5153 20.5068 91.46 21.2467 91.3783 21.9786C91.3104 22.5866 91.7776 23.131 92.3894 23.131H97.332C97.6215 23.131 97.8968 23.0055 98.0868 22.787L100.143 20.4212C100.706 19.7739 100.246 18.7651 99.3887 18.7651H92.5596ZM33.2128 29.6057C33.413 29.4781 33.4952 29.2272 33.4129 29.0044C32.2176 25.767 31.5649 22.2668 31.5649 18.6141C31.5649 15.028 32.1941 11.5889 33.3481 8.40107C33.5915 7.72887 33.1058 6.99951 32.3909 6.99951H30.5973C30.3078 6.99951 30.0325 7.12497 29.8426 7.34345L8.24723 32.186C7.68458 32.8333 8.14431 33.8421 9.00194 33.8421H12.8476C13.1371 33.8421 13.4124 33.7166 13.6023 33.4982L27.6317 17.3592C27.9319 17.0138 28.2372 16.6439 28.5476 16.2492V16.2492C28.7991 15.9303 29.3204 16.1575 29.2524 16.5579L27.0358 29.6057C26.9542 30.0004 27.0429 30.3026 27.3018 30.5122C27.5715 30.7095 27.9923 30.8082 28.5643 30.8082H29.5938C30.754 30.8082 31.9603 30.4074 33.2128 29.6057V29.6057ZM58.6742 19.0382C58.8649 18.9807 59.0381 18.8742 59.1688 18.7238L64.705 12.3552C65.1973 11.7888 64.9112 10.9086 64.1685 10.801C63.3184 10.6778 62.4491 10.6141 61.5649 10.6141C54.9241 10.6141 49.1233 14.2102 46.0035 19.5614C45.5194 20.3919 46.4361 21.1725 47.2467 20.6555L54.6133 15.9574C54.7885 15.8457 54.9921 16.0988 54.8488 16.2492V16.2492C54.4894 16.6439 54.1596 17.0138 53.8594 17.3592L43.8311 28.8955C43.6658 29.0857 43.5771 29.3313 43.5905 29.5829C43.6551 30.8006 43.8407 31.9862 44.1355 33.1279C44.2456 33.5544 44.6371 33.8421 45.0777 33.8421H45.571C45.8605 33.8421 46.1358 33.7166 46.3257 33.4982L51.4389 27.616C51.5697 27.4656 51.6512 27.279 51.6815 27.082C52.2707 23.25 55.0351 20.1353 58.6742 19.0382ZM66.9929 20.2141C66.4371 19.8542 66.2727 19.0771 66.7072 18.5774L70.6365 14.0572C70.961 13.6839 71.5115 13.6015 71.916 13.8863C72.9804 14.6358 73.96 15.4978 74.8374 16.455C75.1689 16.8167 75.161 17.368 74.8391 17.7383L70.9054 22.2635C70.4659 22.7691 69.6619 22.7066 69.2315 22.1933C68.5895 21.4274 67.8348 20.7592 66.9929 20.2141ZM73.2775 11.0191C72.8801 11.4762 72.9784 12.1773 73.4649 12.5381C74.3511 13.1951 75.181 13.9237 75.9462 14.7152C76.3698 15.1534 77.0834 15.1565 77.4833 14.6965L82.7346 8.65557C83.2973 8.00831 82.8376 6.99951 81.9799 6.99951H77.2274C76.9379 6.99951 76.6626 7.12497 76.4726 7.34345L73.2775 11.0191ZM71.3894 30.4888C71.4242 30.3053 71.5036 30.1325 71.6262 29.9915L77.2967 23.4684C77.7923 22.8982 78.7103 23.0659 78.9122 23.7939C79.3375 25.328 79.5649 26.9445 79.5649 28.6141C79.5649 28.7579 79.5632 28.9013 79.5598 29.0443C79.5545 29.2707 79.4674 29.487 79.3188 29.6579L75.9805 33.4982C75.7906 33.7166 75.5153 33.8421 75.2258 33.8421H71.8792C71.0972 33.8421 70.6021 32.9717 70.886 32.243C71.1049 31.6812 71.2745 31.0947 71.3894 30.4888ZM40.6715 32.5301C41.0884 32.0506 41.8917 32.2907 42.0276 32.9114V32.9114C42.1316 33.3861 41.777 33.8421 41.291 33.8421H41.2099C40.5538 33.8421 40.202 33.0703 40.6325 32.575L40.6715 32.5301ZM61.5649 8.61409C63.3135 8.61409 65.0098 8.83851 66.6264 9.26013C67.0053 9.35895 67.4106 9.24277 67.6675 8.94721L67.921 8.65557C68.4837 8.00831 68.0239 6.99951 67.1663 6.99951H63.7719C63.4451 6.99951 63.1537 7.00568 62.8979 7.01801C62.6584 7.03034 62.4138 7.06734 62.1641 7.12901C61.9415 7.17834 61.6948 7.26467 61.4242 7.388C61.1643 7.49899 60.8697 7.65932 60.5404 7.86898V7.86898C60.2027 8.08518 60.3944 8.64379 60.7951 8.62863C61.0505 8.61897 61.3071 8.61409 61.5649 8.61409ZM54.9549 33.1219C54.7166 32.7732 54.7686 32.3111 55.0456 31.9924L64.0038 21.6872C64.2807 21.3687 64.7308 21.2528 65.1091 21.4401C66.4088 22.0834 67.5087 23.0696 68.2905 24.2804C68.5148 24.6278 68.4587 25.0782 68.1874 25.3903L61.1393 33.4982C60.9494 33.7166 60.6741 33.8421 60.3846 33.8421H55.9668C55.6763 33.8421 55.3973 33.7179 55.2202 33.4876C55.1284 33.3683 55.0399 33.2464 54.9549 33.1219Z"/>
</mask>
<path fill-rule="evenodd" clip-rule="evenodd" d="M34.8778 27.1123C35.0713 27.7205 35.7896 27.9624 36.3277 27.6192L41.7767 24.144C41.9951 24.0048 42.1498 23.7859 42.2154 23.5354C42.345 23.0402 42.4931 22.5525 42.659 22.073C43.0068 21.0676 41.7366 19.9083 40.8406 20.4819L38.2634 22.132C37.5777 22.5637 36.8923 23.0138 36.2071 23.4825C35.739 23.8104 35.2696 24.1445 34.799 24.4845C34.4753 24.7184 34.3226 25.1241 34.4207 25.5112C34.5575 26.0513 34.71 26.5852 34.8778 27.1123ZM33.9874 23.4871C34.0529 23.86 34.5352 23.8859 34.6306 23.5195V23.5195C34.7659 23.0631 34.8658 22.6192 34.9306 22.1875L37.4256 7.86898C37.4509 7.71869 37.4498 7.59375 37.4226 7.49416C37.4023 7.42013 37.3714 7.34729 37.3258 7.28555C37.2856 7.23106 37.2288 7.18739 37.1554 7.15453C37.1118 7.13502 37.0672 7.11755 37.0225 7.10086C36.9022 7.05595 36.7438 7.02834 36.5476 7.01801V7.01801C36.263 7.00304 36.0013 7.16966 35.8874 7.4309C34.3934 10.8563 33.5649 14.6384 33.5649 18.6141C33.5649 20.2762 33.7097 21.9045 33.9874 23.4871ZM88.8809 12.4357C88.7074 11.6653 87.743 11.4512 87.225 12.0472L80.2765 20.0404C80.022 20.3332 79.9619 20.746 80.1076 21.1056C80.5801 22.2714 80.9459 23.4919 81.1928 24.7549C81.3635 25.6278 82.5045 25.9932 83.088 25.3219L84.6936 23.4749C84.8835 23.2564 85.1588 23.131 85.4483 23.131H88.3515C88.842 23.131 89.2621 22.7755 89.3258 22.2891C89.4668 21.2138 89.5468 20.1193 89.5621 19.0092C89.564 18.8746 89.455 18.7651 89.3204 18.7651V18.7651C89.1122 18.7651 89.0006 18.5202 89.1372 18.3631L89.44 18.0148C89.5143 17.9293 89.554 17.8191 89.5504 17.7059C89.4929 15.9008 89.2645 14.1389 88.8809 12.4357ZM92.9566 13.9694C92.3801 14.6326 91.2678 14.2849 91.1167 13.4192C90.8799 12.0625 90.5519 10.7371 90.1393 9.44962C90.0305 9.11013 90.1022 8.73732 90.3361 8.46827L91.3138 7.34345C91.5038 7.12497 91.7791 6.99951 92.0686 6.99951H112.068C112.925 6.99951 113.385 8.00831 112.822 8.65557L110.782 11.0029C110.592 11.2214 110.316 11.3469 110.027 11.3469H95.692C95.4026 11.3469 95.1273 11.4723 94.9373 11.6908L92.9566 13.9694ZM92.5596 18.7651C92.0092 18.7651 91.564 19.21 91.5434 19.7599C91.5153 20.5068 91.46 21.2467 91.3783 21.9786C91.3104 22.5866 91.7776 23.131 92.3894 23.131H97.332C97.6215 23.131 97.8968 23.0055 98.0868 22.787L100.143 20.4212C100.706 19.7739 100.246 18.7651 99.3887 18.7651H92.5596ZM33.2128 29.6057C33.413 29.4781 33.4952 29.2272 33.4129 29.0044C32.2176 25.767 31.5649 22.2668 31.5649 18.6141C31.5649 15.028 32.1941 11.5889 33.3481 8.40107C33.5915 7.72887 33.1058 6.99951 32.3909 6.99951H30.5973C30.3078 6.99951 30.0325 7.12497 29.8426 7.34345L8.24723 32.186C7.68458 32.8333 8.14431 33.8421 9.00194 33.8421H12.8476C13.1371 33.8421 13.4124 33.7166 13.6023 33.4982L27.6317 17.3592C27.9319 17.0138 28.2372 16.6439 28.5476 16.2492V16.2492C28.7991 15.9303 29.3204 16.1575 29.2524 16.5579L27.0358 29.6057C26.9542 30.0004 27.0429 30.3026 27.3018 30.5122C27.5715 30.7095 27.9923 30.8082 28.5643 30.8082H29.5938C30.754 30.8082 31.9603 30.4074 33.2128 29.6057V29.6057ZM58.6742 19.0382C58.8649 18.9807 59.0381 18.8742 59.1688 18.7238L64.705 12.3552C65.1973 11.7888 64.9112 10.9086 64.1685 10.801C63.3184 10.6778 62.4491 10.6141 61.5649 10.6141C54.9241 10.6141 49.1233 14.2102 46.0035 19.5614C45.5194 20.3919 46.4361 21.1725 47.2467 20.6555L54.6133 15.9574C54.7885 15.8457 54.9921 16.0988 54.8488 16.2492V16.2492C54.4894 16.6439 54.1596 17.0138 53.8594 17.3592L43.8311 28.8955C43.6658 29.0857 43.5771 29.3313 43.5905 29.5829C43.6551 30.8006 43.8407 31.9862 44.1355 33.1279C44.2456 33.5544 44.6371 33.8421 45.0777 33.8421H45.571C45.8605 33.8421 46.1358 33.7166 46.3257 33.4982L51.4389 27.616C51.5697 27.4656 51.6512 27.279 51.6815 27.082C52.2707 23.25 55.0351 20.1353 58.6742 19.0382ZM66.9929 20.2141C66.4371 19.8542 66.2727 19.0771 66.7072 18.5774L70.6365 14.0572C70.961 13.6839 71.5115 13.6015 71.916 13.8863C72.9804 14.6358 73.96 15.4978 74.8374 16.455C75.1689 16.8167 75.161 17.368 74.8391 17.7383L70.9054 22.2635C70.4659 22.7691 69.6619 22.7066 69.2315 22.1933C68.5895 21.4274 67.8348 20.7592 66.9929 20.2141ZM73.2775 11.0191C72.8801 11.4762 72.9784 12.1773 73.4649 12.5381C74.3511 13.1951 75.181 13.9237 75.9462 14.7152C76.3698 15.1534 77.0834 15.1565 77.4833 14.6965L82.7346 8.65557C83.2973 8.00831 82.8376 6.99951 81.9799 6.99951H77.2274C76.9379 6.99951 76.6626 7.12497 76.4726 7.34345L73.2775 11.0191ZM71.3894 30.4888C71.4242 30.3053 71.5036 30.1325 71.6262 29.9915L77.2967 23.4684C77.7923 22.8982 78.7103 23.0659 78.9122 23.7939C79.3375 25.328 79.5649 26.9445 79.5649 28.6141C79.5649 28.7579 79.5632 28.9013 79.5598 29.0443C79.5545 29.2707 79.4674 29.487 79.3188 29.6579L75.9805 33.4982C75.7906 33.7166 75.5153 33.8421 75.2258 33.8421H71.8792C71.0972 33.8421 70.6021 32.9717 70.886 32.243C71.1049 31.6812 71.2745 31.0947 71.3894 30.4888ZM40.6715 32.5301C41.0884 32.0506 41.8917 32.2907 42.0276 32.9114V32.9114C42.1316 33.3861 41.777 33.8421 41.291 33.8421H41.2099C40.5538 33.8421 40.202 33.0703 40.6325 32.575L40.6715 32.5301ZM61.5649 8.61409C63.3135 8.61409 65.0098 8.83851 66.6264 9.26013C67.0053 9.35895 67.4106 9.24277 67.6675 8.94721L67.921 8.65557C68.4837 8.00831 68.0239 6.99951 67.1663 6.99951H63.7719C63.4451 6.99951 63.1537 7.00568 62.8979 7.01801C62.6584 7.03034 62.4138 7.06734 62.1641 7.12901C61.9415 7.17834 61.6948 7.26467 61.4242 7.388C61.1643 7.49899 60.8697 7.65932 60.5404 7.86898V7.86898C60.2027 8.08518 60.3944 8.64379 60.7951 8.62863C61.0505 8.61897 61.3071 8.61409 61.5649 8.61409ZM54.9549 33.1219C54.7166 32.7732 54.7686 32.3111 55.0456 31.9924L64.0038 21.6872C64.2807 21.3687 64.7308 21.2528 65.1091 21.4401C66.4088 22.0834 67.5087 23.0696 68.2905 24.2804C68.5148 24.6278 68.4587 25.0782 68.1874 25.3903L61.1393 33.4982C60.9494 33.7166 60.6741 33.8421 60.3846 33.8421H55.9668C55.6763 33.8421 55.3973 33.7179 55.2202 33.4876C55.1284 33.3683 55.0399 33.2464 54.9549 33.1219Z" fill="#023E44"/>
<path d="M38.2634 22.132L39.3289 23.8246L39.3354 23.8205L39.3418 23.8163L38.2634 22.132ZM36.2071 23.4825L35.078 21.8317L35.0686 21.838L35.0594 21.8445L36.2071 23.4825ZM34.9306 22.1875L32.9603 21.8442L32.9562 21.8675L32.9527 21.8908L34.9306 22.1875ZM37.4256 7.86898L39.396 8.21232L39.3981 8.19999L37.4256 7.86898ZM27.6317 17.3592L26.1223 16.047L26.1223 16.047L27.6317 17.3592ZM27.0358 29.6057L28.9944 30.0107L29.0016 29.9758L29.0075 29.9407L27.0358 29.6057ZM27.3018 30.5122L26.0433 32.0666L26.0813 32.0974L26.1208 32.1263L27.3018 30.5122ZM53.8594 17.3592L55.3689 18.6713L55.3689 18.6713L53.8594 17.3592ZM62.8979 7.01801L62.8016 5.02032L62.795 5.02066L62.8979 7.01801ZM62.1641 7.12901L62.5968 9.08165L62.6202 9.07644L62.6436 9.07068L62.1641 7.12901ZM61.4242 7.388L62.2097 9.22729L62.2318 9.21787L62.2536 9.20792L61.4242 7.388ZM55.2202 33.4876L56.8054 32.2681L55.2202 33.4876ZM61.1393 33.4982L59.6299 32.186L61.1393 33.4982ZM68.2905 24.2804L69.9707 23.1955L68.2905 24.2804ZM68.1874 25.3903L66.6779 24.0782L68.1874 25.3903ZM55.0456 31.9924L53.5362 30.6803L55.0456 31.9924ZM64.0038 21.6872L62.4944 20.3751L64.0038 21.6872ZM65.1091 21.4401L64.2219 23.2325L65.1091 21.4401ZM60.7951 8.62863L60.7195 6.63006L60.7951 8.62863ZM66.6264 9.26013L67.1311 7.32486L66.6264 9.26013ZM67.6675 8.94721L69.1769 10.2593L67.6675 8.94721ZM40.6325 32.575L42.1419 33.8871L40.6325 32.575ZM40.6715 32.5301L39.1621 31.218L40.6715 32.5301ZM75.9805 33.4982L74.4711 32.186L75.9805 33.4982ZM79.5598 29.0443L81.5593 29.0912L79.5598 29.0443ZM79.3188 29.6579L80.8282 30.97L79.3188 29.6579ZM71.6262 29.9915L73.1356 31.3037L71.6262 29.9915ZM71.3894 30.4888L73.3544 30.8615L71.3894 30.4888ZM77.2967 23.4684L78.8061 24.7805L77.2967 23.4684ZM78.9122 23.7939L80.8395 23.2596L78.9122 23.7939ZM76.4726 7.34345L74.9632 6.03133L76.4726 7.34345ZM70.9054 22.2635L69.396 20.9514L70.9054 22.2635ZM69.2315 22.1933L70.7642 20.9083L69.2315 22.1933ZM66.7072 18.5774L68.2166 19.8895L66.7072 18.5774ZM66.9929 20.2141L68.08 18.5353L66.9929 20.2141ZM46.3257 33.4982L44.8163 32.186L46.3257 33.4982ZM44.1355 33.1279L46.072 32.6278L44.1355 33.1279ZM54.6133 15.9574L53.5379 14.2711L54.6133 15.9574ZM46.0035 19.5614L44.2757 18.5541L46.0035 19.5614ZM47.2467 20.6555L48.3221 22.3418L47.2467 20.6555ZM29.2524 16.5579L27.2806 16.223L29.2524 16.5579ZM13.6023 33.4982L15.1117 34.8103L13.6023 33.4982ZM8.24723 32.186L9.75665 33.4982L9.75665 33.4982L8.24723 32.186ZM29.8426 7.34345L28.3331 6.03134L28.3331 6.03134L29.8426 7.34345ZM33.3481 8.40107L35.2287 9.08188L33.3481 8.40107ZM33.4129 29.0044L35.2891 28.3117L33.4129 29.0044ZM100.143 20.4212L101.653 21.7333L100.143 20.4212ZM98.0868 22.787L99.5962 24.0991L98.0868 22.787ZM91.5434 19.7599L89.5448 19.6849L91.5434 19.7599ZM91.3783 21.9786L93.366 22.2004L91.3783 21.9786ZM110.782 11.0029L112.291 12.315L110.782 11.0029ZM89.44 18.0148L90.9494 19.3269L89.44 18.0148ZM89.5504 17.7059L91.5494 17.6422L89.5504 17.7059ZM89.1372 18.3631L90.6466 19.6752L89.1372 18.3631ZM89.3258 22.2891L91.3089 22.5491L89.3258 22.2891ZM84.6936 23.4749L83.1842 22.1628L84.6936 23.4749ZM82.7346 8.65557L81.2252 7.34345L82.7346 8.65557ZM81.1928 24.7549L79.23 25.1386L81.1928 24.7549ZM83.088 25.3219L84.5974 26.634L83.088 25.3219ZM75.9462 14.7152L77.3841 13.3252L75.9462 14.7152ZM77.4833 14.6965L78.9927 16.0087L77.4833 14.6965ZM80.2765 20.0404L78.7671 18.7283L80.2765 20.0404ZM80.1076 21.1056L81.9611 20.3543L80.1076 21.1056ZM51.4389 27.616L52.9484 28.9281L51.4389 27.616ZM51.6815 27.082L53.6583 27.3859L51.6815 27.082ZM37.4226 7.49416L39.3517 6.96635L37.4226 7.49416ZM37.3258 7.28555L38.9348 6.0976L37.3258 7.28555ZM43.8311 28.8955L45.3405 30.2076L43.8311 28.8955ZM43.5905 29.5829L41.5933 29.6888L43.5905 29.5829ZM33.9874 23.4871L32.0175 23.8328L33.9874 23.4871ZM74.8374 16.455L73.363 17.8064L74.8374 16.455ZM74.8391 17.7383L73.3297 16.4262L74.8391 17.7383ZM35.8874 7.4309L34.0541 6.63137L35.8874 7.4309ZM91.3138 7.34345L89.8044 6.03133L91.3138 7.34345ZM42.659 22.073L44.5491 22.7269L42.659 22.073ZM40.8406 20.4819L41.919 22.1663L40.8406 20.4819ZM90.1393 9.44962L92.0439 8.83927L90.1393 9.44962ZM90.3361 8.46827L88.8266 7.15615L90.3361 8.46827ZM59.1688 18.7238L60.6782 20.036L59.1688 18.7238ZM58.6742 19.0382L58.097 17.1234L58.6742 19.0382ZM36.3277 27.6192L35.2523 25.9329L36.3277 27.6192ZM34.8778 27.1123L36.7836 26.5059L34.8778 27.1123ZM73.4649 12.5381L72.2737 14.1446L73.4649 12.5381ZM73.2775 11.0191L74.7869 12.3312L73.2775 11.0191ZM87.225 12.0472L85.7156 10.735L87.225 12.0472ZM88.8809 12.4357L90.8321 11.9963L90.8321 11.9963L88.8809 12.4357ZM94.9373 11.6908L96.4468 13.0029L94.9373 11.6908ZM34.799 24.4845L33.6276 22.8635L34.799 24.4845ZM34.4207 25.5112L32.4819 26.0023L34.4207 25.5112ZM70.6365 14.0572L72.1459 15.3693L70.6365 14.0572ZM71.916 13.8863L70.7645 15.5216L71.916 13.8863ZM37.1554 7.15453L36.3379 8.97985L37.1554 7.15453ZM37.0225 7.10086L36.3234 8.9747L37.0225 7.10086ZM92.9566 13.9694L91.4472 12.6573L92.9566 13.9694ZM64.705 12.3552L63.1956 11.0431L64.705 12.3552ZM64.1685 10.801L63.8817 12.7803L64.1685 10.801ZM41.7767 24.144L42.8522 25.8303L41.7767 24.144ZM42.2154 23.5354L40.2806 23.0289L42.2154 23.5354ZM40.7013 22.4578L35.2523 25.9329L37.4031 29.3054L42.8522 25.8303L40.7013 22.4578ZM40.7689 21.4192C40.5863 21.947 40.4232 22.4838 40.2806 23.0289L44.1502 24.0418C44.2667 23.5965 44.3999 23.158 44.5491 22.7269L40.7689 21.4192ZM39.3418 23.8163L41.919 22.1663L39.7622 18.7976L37.185 20.4477L39.3418 23.8163ZM37.3362 25.1333C38.0009 24.6786 38.6652 24.2424 39.3289 23.8246L37.198 20.4394C36.4903 20.8849 35.7836 21.349 35.078 21.8317L37.3362 25.1333ZM35.9705 26.1056C36.4333 25.7711 36.8947 25.4427 37.3547 25.1204L35.0594 21.8445C34.5832 22.1782 34.106 22.5178 33.6276 22.8635L35.9705 26.1056ZM32.4819 26.0023C32.6286 26.5813 32.7921 27.1536 32.9719 27.7187L36.7836 26.5059C36.628 26.0168 36.4864 25.5214 36.3595 25.0201L32.4819 26.0023ZM32.9527 21.8908C32.9029 22.2229 32.8242 22.576 32.7131 22.9513L36.5482 24.0876C36.7075 23.5502 36.8288 23.0154 36.9085 22.4842L32.9527 21.8908ZM35.4553 7.52565L32.9603 21.8442L36.9009 22.5308L39.3959 8.21232L35.4553 7.52565ZM35.4935 8.02196C35.4531 7.87443 35.4445 7.75432 35.4439 7.67878C35.4432 7.60292 35.4506 7.55359 35.4532 7.53798L39.3981 8.19999C39.4503 7.88845 39.483 7.44633 39.3517 6.96635L35.4935 8.02196ZM36.3379 8.97985C36.1559 8.89831 35.9163 8.74372 35.7168 8.4735L38.9348 6.0976C38.6548 5.7184 38.3016 5.47646 37.9728 5.32921L36.3379 8.97985ZM36.4425 9.01525C36.4775 9.01709 36.4847 9.01931 36.4698 9.01672C36.4565 9.01439 36.4029 9.00435 36.3234 8.9747L37.7216 5.22702C37.338 5.0839 36.9565 5.03676 36.6527 5.02077L36.4425 9.01525ZM34.0541 6.63137C32.4523 10.3042 31.5649 14.3581 31.5649 18.6141H35.5649C35.5649 14.9187 36.3346 11.4083 37.7206 8.23044L34.0541 6.63137ZM31.5649 18.6141C31.5649 20.3926 31.7198 22.1366 32.0175 23.8328L35.9573 23.1414C35.6995 21.6725 35.5649 20.1598 35.5649 18.6141H31.5649ZM81.7859 21.3526L88.7344 13.3593L85.7156 10.735L78.7671 18.7283L81.7859 21.3526ZM83.1557 24.3712C82.8839 22.9811 82.4813 21.6376 81.9611 20.3543L78.2541 21.8569C78.679 22.9052 79.0079 24.0027 79.23 25.1386L83.1557 24.3712ZM83.1842 22.1628L81.5786 24.0098L84.5974 26.634L86.203 24.787L83.1842 22.1628ZM88.3515 21.131H85.4483V25.131H88.3515V21.131ZM91.3089 22.5491C91.4599 21.3969 91.5455 20.2248 91.5619 19.0368L87.5623 18.9815C87.548 20.0137 87.4737 21.0307 87.3428 22.0291L91.3089 22.5491ZM87.9305 16.7027L87.6278 17.051L90.6466 19.6752L90.9494 19.3269L87.9305 16.7027ZM91.5494 17.6422C91.4878 15.7099 91.2433 13.8221 90.8321 11.9963L86.9298 12.8751C87.2858 14.4556 87.498 16.0918 87.5514 17.7696L91.5494 17.6422ZM93.0869 13.0753C92.8342 11.6277 92.4842 10.2134 92.0439 8.83927L88.2347 10.06C88.6195 11.2609 88.9255 12.4973 89.1465 13.7632L93.0869 13.0753ZM91.8455 9.78038L92.8233 8.65557L89.8044 6.03133L88.8266 7.15615L91.8455 9.78038ZM92.0686 8.99951H112.068V4.99951H92.0686V8.99951ZM111.313 7.34345L109.272 9.69081L112.291 12.315L114.332 9.96769L111.313 7.34345ZM110.027 9.34686H95.692V13.3469H110.027V9.34686ZM93.4279 10.3787L91.4472 12.6573L94.466 15.2815L96.4468 13.0029L93.4279 10.3787ZM93.366 22.2004C93.4531 21.4198 93.5121 20.631 93.542 19.835L89.5448 19.6849C89.5186 20.3826 89.4669 21.0735 89.3906 21.7568L93.366 22.2004ZM97.332 21.131H92.3894V25.131H97.332V21.131ZM98.6339 19.1091L96.5773 21.4749L99.5962 24.0991L101.653 21.7333L98.6339 19.1091ZM92.5596 20.7651H99.3887V16.7651H92.5596V20.7651ZM29.5649 18.6141C29.5649 22.5067 30.2608 26.2412 31.5367 29.6971L35.2891 28.3117C34.1745 25.2927 33.5649 22.0269 33.5649 18.6141H29.5649ZM31.4675 7.72027C30.2356 11.1232 29.5649 14.7925 29.5649 18.6141H33.5649C33.5649 15.2635 34.1525 12.0545 35.2287 9.08188L31.4675 7.72027ZM30.5973 8.99951H32.3909V4.99951H30.5973V8.99951ZM9.75665 33.4982L31.352 8.65557L28.3331 6.03134L6.73781 30.8739L9.75665 33.4982ZM12.8476 31.8421H9.00194V35.8421H12.8476V31.8421ZM26.1223 16.047L12.0929 32.186L15.1117 34.8103L29.1411 18.6713L26.1223 16.047ZM26.9755 15.0128C26.6834 15.3842 26.399 15.7287 26.1223 16.047L29.1411 18.6713C29.4648 18.299 29.7909 17.9035 30.1196 17.4856L26.9755 15.0128ZM29.0075 29.9407L31.2241 16.8929L27.2806 16.223L25.064 29.2708L29.0075 29.9407ZM28.5603 28.9578C28.7272 29.0929 28.8833 29.3031 28.9602 29.5651C29.0304 29.8045 29.0019 29.9745 28.9944 30.0107L25.0772 29.2008C24.8823 30.1434 25.0696 31.2783 26.0433 32.0666L28.5603 28.9578ZM28.5643 28.8082C28.478 28.8082 28.4111 28.8044 28.3614 28.7995C28.3115 28.7945 28.2844 28.7889 28.2762 28.787C28.2679 28.7851 28.2851 28.7883 28.3204 28.8035C28.3563 28.8189 28.4142 28.8479 28.4828 28.8982L26.1208 32.1263C26.9013 32.6974 27.8387 32.8082 28.5643 32.8082V28.8082ZM29.5938 28.8082H28.5643V32.8082H29.5938V28.8082ZM32.1346 27.9212C31.1143 28.5743 30.2777 28.8082 29.5938 28.8082V32.8082C31.2303 32.8082 32.8063 32.2405 34.291 31.2902L32.1346 27.9212ZM63.1956 11.0431L57.6594 17.4117L60.6782 20.036L66.2144 13.6673L63.1956 11.0431ZM61.5649 12.6141C62.3528 12.6141 63.1263 12.6709 63.8817 12.7803L64.4553 8.82168C63.5105 8.6848 62.5453 8.61409 61.5649 8.61409V12.6141ZM47.7314 20.5687C50.5075 15.8069 55.6644 12.6141 61.5649 12.6141V8.61409C54.1837 8.61409 47.739 12.6136 44.2757 18.5541L47.7314 20.5687ZM53.5379 14.2711L46.1712 18.9693L48.3221 22.3418L55.6888 17.6436L53.5379 14.2711ZM55.3689 18.6713C55.6574 18.3393 55.9768 17.9809 56.3275 17.5958L53.3701 14.9026C53.002 15.3068 52.6618 15.6884 52.35 16.047L55.3689 18.6713ZM45.3405 30.2076L55.3689 18.6713L52.35 16.047L42.3216 27.5834L45.3405 30.2076ZM46.072 32.6278C45.8102 31.6142 45.6451 30.5606 45.5877 29.477L41.5933 29.6888C41.665 31.0406 41.8711 32.3582 42.199 33.6279L46.072 32.6278ZM45.571 31.8421H45.0777V35.8421H45.571V31.8421ZM49.9295 26.3039L44.8163 32.186L47.8351 34.8103L52.9484 28.9281L49.9295 26.3039ZM58.097 17.1234C53.7296 18.4399 50.4125 22.1743 49.7047 26.7781L53.6583 27.3859C54.1288 24.3258 56.3405 21.8306 59.2515 20.9531L58.097 17.1234ZM69.127 12.7451L65.1977 17.2652L68.2166 19.8895L72.1459 15.3693L69.127 12.7451ZM76.3117 15.1036C75.3375 14.0407 74.2498 13.0835 73.0674 12.251L70.7645 15.5216C71.7111 16.1881 72.5825 16.9548 73.363 17.8064L76.3117 15.1036ZM72.4148 23.5757L76.3486 19.0504L73.3297 16.4262L69.396 20.9514L72.4148 23.5757ZM65.9059 21.8929C66.5797 22.3292 67.1844 22.8645 67.6989 23.4782L70.7642 20.9083C69.9945 19.9904 69.0898 19.1892 68.08 18.5353L65.9059 21.8929ZM77.3841 13.3252C76.543 12.455 75.6305 11.654 74.6561 10.9315L72.2737 14.1446C73.0716 14.7362 73.819 15.3923 74.5082 16.1052L77.3841 13.3252ZM81.2252 7.34345L75.9739 13.3844L78.9927 16.0087L84.2441 9.96769L81.2252 7.34345ZM77.2274 8.99951H81.9799V4.99951H77.2274V8.99951ZM74.7869 12.3312L77.9821 8.65557L74.9632 6.03133L71.7681 9.70696L74.7869 12.3312ZM75.7873 22.1562L70.1167 28.6794L73.1356 31.3037L78.8061 24.7805L75.7873 22.1562ZM81.5649 28.6141C81.5649 26.7622 81.3126 24.9661 80.8395 23.2596L76.9849 24.3283C77.3625 25.69 77.5649 27.1268 77.5649 28.6141H81.5649ZM81.5593 29.0912C81.563 28.9326 81.5649 28.7735 81.5649 28.6141H77.5649C77.5649 28.7423 77.5633 28.8701 77.5604 28.9974L81.5593 29.0912ZM77.4899 34.8103L80.8282 30.97L77.8094 28.3458L74.4711 32.186L77.4899 34.8103ZM71.8792 35.8421H75.2258V31.8421H71.8792V35.8421ZM69.4244 30.1162C69.3326 30.6001 69.1972 31.0684 69.0225 31.517L72.7496 32.9691C73.0126 32.294 73.2163 31.5893 73.3544 30.8615L69.4244 30.1162ZM41.2099 35.8421H41.291V31.8421H41.2099V35.8421ZM39.1621 31.218L39.1231 31.2629L42.1419 33.8871L42.181 33.8422L39.1621 31.218ZM67.1311 7.32486C65.3511 6.86064 63.4853 6.61409 61.5649 6.61409V10.6141C63.1418 10.6141 64.6685 10.8164 66.1217 11.1954L67.1311 7.32486ZM66.4116 7.34345L66.1581 7.63509L69.1769 10.2593L69.4304 9.96769L66.4116 7.34345ZM63.7719 8.99951H67.1663V4.99951H63.7719V8.99951ZM62.9942 9.01569C63.2106 9.00526 63.4689 8.99951 63.7719 8.99951V4.99951C63.4212 4.99951 63.0968 5.0061 62.8016 5.02033L62.9942 9.01569ZM62.6436 9.07068C62.7787 9.03732 62.8971 9.0207 63.0007 9.01537L62.795 5.02066C62.4197 5.03998 62.0489 5.09736 61.6846 5.18734L62.6436 9.07068ZM62.2536 9.20792C62.4331 9.12612 62.5446 9.09321 62.5968 9.08165L61.7314 5.17637C61.3383 5.26347 60.9566 5.40322 60.5948 5.56807L62.2536 9.20792ZM61.6144 9.5561C61.8838 9.3846 62.0797 9.28283 62.2097 9.22729L60.6387 5.54871C60.249 5.71516 59.8556 5.93405 59.4663 6.18187L61.6144 9.5561ZM61.5649 6.61409C61.2819 6.61409 61 6.61944 60.7195 6.63006L60.8707 10.6272C61.1009 10.6185 61.3323 10.6141 61.5649 10.6141V6.61409ZM62.4944 20.3751L53.5362 30.6803L56.5551 33.3045L65.5132 22.9993L62.4944 20.3751ZM69.9707 23.1955C68.9945 21.6836 67.6214 20.452 65.9963 19.6476L64.2219 23.2325C65.1963 23.7148 66.023 24.4556 66.6103 25.3653L69.9707 23.1955ZM62.6487 34.8103L69.6968 26.7024L66.6779 24.0782L59.6299 32.186L62.6487 34.8103ZM55.9668 35.8421H60.3846V31.8421H55.9668V35.8421ZM53.3036 34.2503C53.4098 34.4058 53.5203 34.5581 53.6349 34.7071L56.8054 32.2681C56.7365 32.1786 56.67 32.087 56.6062 31.9936L53.3036 34.2503ZM55.9668 31.8421C56.234 31.8421 56.567 31.9582 56.8054 32.2681L53.6349 34.7071C54.2276 35.4775 55.1186 35.8421 55.9668 35.8421V31.8421ZM59.6299 32.186C59.8198 31.9676 60.0951 31.8421 60.3846 31.8421V35.8421C61.2531 35.8421 62.0789 35.4657 62.6487 34.8103L59.6299 32.186ZM66.6103 25.3653C66.2974 24.8807 66.4336 24.3593 66.6779 24.0782L69.6968 26.7024C70.4838 25.7971 70.7323 24.375 69.9707 23.1955L66.6103 25.3653ZM53.5362 30.6803C52.733 31.6043 52.4937 33.0651 53.3036 34.2503L56.6062 31.9936C56.9395 32.4814 56.8041 33.018 56.5551 33.3045L53.5362 30.6803ZM65.5132 22.9993C65.2644 23.2855 64.7519 23.4948 64.2219 23.2325L65.9963 19.6476C64.7097 19.0108 63.297 19.4518 62.4944 20.3751L65.5132 22.9993ZM59.462 6.18464C58.3472 6.89838 58.2168 8.15099 58.4965 8.97709C58.7731 9.79368 59.6033 10.6752 60.8707 10.6272L60.7195 6.63006C61.5862 6.59726 62.1202 7.20702 62.2852 7.69404C62.4533 8.19057 62.3959 9.05578 61.6188 9.55333L59.462 6.18464ZM69.4304 9.96769C71.1184 8.0259 69.7392 4.99951 67.1663 4.99951V8.99951C66.3087 8.99951 65.8489 7.99072 66.4116 7.34345L69.4304 9.96769ZM66.1217 11.1954C67.2002 11.4767 68.3978 11.1556 69.1769 10.2593L66.1581 7.63509C66.4234 7.3299 66.8105 7.24123 67.1311 7.32486L66.1217 11.1954ZM41.2099 31.8421C42.269 31.8421 42.8367 33.0879 42.1419 33.8871L39.1231 31.2629C37.5673 33.0527 38.8385 35.8421 41.2099 35.8421V31.8421ZM43.9814 32.4836C43.5323 30.4326 40.7744 29.3633 39.1621 31.218L42.181 33.8422C41.8099 34.269 41.2728 34.3369 40.9019 34.2302C40.5441 34.1273 40.1797 33.8224 40.0739 33.3391L43.9814 32.4836ZM40.0739 33.3391C39.9147 32.6121 40.4538 31.8421 41.291 31.8421V35.8421C43.1003 35.8421 44.3484 34.1601 43.9814 32.4836L40.0739 33.3391ZM71.8792 31.8421C72.2931 31.8421 72.577 32.0861 72.6959 32.2835C72.8052 32.4649 72.8496 32.7124 72.7496 32.9691L69.0225 31.517C68.3278 33.3 69.4248 35.8421 71.8792 35.8421V31.8421ZM74.4711 32.186C74.661 31.9676 74.9363 31.8421 75.2258 31.8421V35.8421C76.0943 35.8421 76.9201 35.4657 77.4899 34.8103L74.4711 32.186ZM77.5604 28.9974C77.5664 28.738 77.6655 28.5113 77.8094 28.3458L80.8282 30.97C81.2693 30.4626 81.5426 29.8034 81.5593 29.0912L77.5604 28.9974ZM70.1167 28.6794C69.7429 29.1095 69.5196 29.6142 69.4244 30.1162L73.3544 30.8615C73.3288 30.9964 73.2643 31.1555 73.1356 31.3037L70.1167 28.6794ZM78.8061 24.7805C78.5668 25.0557 78.1896 25.177 77.8324 25.1074C77.458 25.0345 77.1006 24.7456 76.9849 24.3283L80.8395 23.2596C80.1664 20.8321 77.2162 20.5124 75.7873 22.1562L78.8061 24.7805ZM77.2274 4.99951C76.3589 4.99951 75.533 5.37588 74.9632 6.03133L77.9821 8.65557C77.7921 8.87406 77.5169 8.99951 77.2274 8.99951V4.99951ZM69.396 20.9514C69.6233 20.6899 69.9342 20.6006 70.172 20.6134C70.3963 20.6254 70.6111 20.7257 70.7642 20.9083L67.6989 23.4782C68.7995 24.7909 71.0508 25.1448 72.4148 23.5757L69.396 20.9514ZM65.1977 17.2652C63.85 18.8156 64.4823 20.9711 65.9059 21.8929L68.08 18.5353C68.2775 18.6632 68.4037 18.8614 68.4448 19.0815C68.4883 19.3148 68.4412 19.6311 68.2166 19.8895L65.1977 17.2652ZM45.571 35.8421C46.4395 35.8421 47.2653 35.4657 47.8351 34.8103L44.8163 32.186C45.0062 31.9676 45.2815 31.8421 45.571 31.8421V35.8421ZM42.199 33.6279C42.5495 34.9853 43.7754 35.8421 45.0777 35.8421V31.8421C45.4988 31.8421 45.9418 32.1236 46.072 32.6278L42.199 33.6279ZM55.6888 17.6436C54.6794 18.2874 53.6838 17.7447 53.2931 17.2599C52.9053 16.7785 52.5932 15.7179 53.4004 14.8701L56.2973 17.6283C57.2477 16.6301 56.9054 15.3677 56.4078 14.7501C55.9074 14.1291 54.7224 13.5157 53.5379 14.2711L55.6888 17.6436ZM44.2757 18.5541C43.5457 19.8062 43.8385 21.2647 44.8286 22.1241C45.7766 22.947 47.1805 23.0698 48.3221 22.3418L46.1712 18.9693C46.5023 18.7581 47.0425 18.7492 47.4506 19.1033C47.6445 19.2716 47.801 19.5206 47.852 19.8244C47.9052 20.1418 47.8254 20.4073 47.7314 20.5687L44.2757 18.5541ZM30.1177 17.488C29.1267 18.744 26.9907 17.9295 27.2806 16.223L31.2241 16.8929C31.6501 14.3855 28.4715 13.1166 26.9774 15.0104L30.1177 17.488ZM12.8476 35.8421C13.7161 35.8421 14.5419 35.4657 15.1117 34.8103L12.0929 32.186C12.2828 31.9676 12.5581 31.8421 12.8476 31.8421V35.8421ZM6.73781 30.8739C5.04984 32.8157 6.42906 35.8421 9.00194 35.8421V31.8421C9.85956 31.8421 10.3193 32.8509 9.75665 33.4982L6.73781 30.8739ZM30.5973 4.99951C29.7288 4.99951 28.9029 5.37588 28.3331 6.03134L31.352 8.65557C31.1621 8.87405 30.8868 8.99951 30.5973 8.99951V4.99951ZM35.2287 9.08188C35.9178 7.17844 34.5689 4.99951 32.3909 4.99951V8.99951C31.6427 8.99951 31.2652 8.27931 31.4675 7.72027L35.2287 9.08188ZM31.5367 29.6971C31.2988 29.0527 31.5305 28.3065 32.1374 27.9195L34.2882 31.292C35.2955 30.6496 35.6916 29.4017 35.2891 28.3117L31.5367 29.6971ZM101.653 21.7333C103.341 19.7915 101.962 16.7651 99.3887 16.7651V20.7651C98.531 20.7651 98.0713 19.7563 98.6339 19.1091L101.653 21.7333ZM97.332 25.131C98.2005 25.131 99.0264 24.7546 99.5962 24.0991L96.5773 21.4749C96.7673 21.2564 97.0426 21.131 97.332 21.131V25.131ZM93.542 19.835C93.5238 20.3176 93.1261 20.7651 92.5596 20.7651V16.7651C90.8923 16.7651 89.6042 18.1023 89.5448 19.6849L93.542 19.835ZM89.3906 21.7568C89.1964 23.4973 90.533 25.131 92.3894 25.131V21.131C93.0222 21.131 93.4245 21.6758 93.366 22.2004L89.3906 21.7568ZM109.272 9.69081C109.462 9.47232 109.738 9.34686 110.027 9.34686V13.3469C110.895 13.3469 111.721 12.9705 112.291 12.315L109.272 9.69081ZM112.068 8.99951C111.21 8.99951 110.75 7.99071 111.313 7.34345L114.332 9.96769C116.02 8.02591 114.64 4.99951 112.068 4.99951V8.99951ZM90.9494 19.3269C91.3503 18.8658 91.5693 18.2657 91.5494 17.6422L87.5514 17.7696C87.5388 17.3726 87.6783 16.9929 87.9305 16.7027L90.9494 19.3269ZM89.3204 16.7651C90.8275 16.7651 91.6353 18.5378 90.6466 19.6752L87.6278 17.051C86.3659 18.5026 87.397 20.7651 89.3204 20.7651V16.7651ZM91.5619 19.0368C91.5794 17.7759 90.5593 16.7651 89.3204 16.7651V20.7651C88.3507 20.7651 87.5486 19.9733 87.5623 18.9815L91.5619 19.0368ZM88.3515 25.131C89.808 25.131 91.1097 24.0683 91.3089 22.5491L87.3428 22.0291C87.4145 21.4826 87.8761 21.131 88.3515 21.131V25.131ZM86.203 24.787C86.0131 25.0055 85.7378 25.131 85.4483 25.131V21.131C84.5798 21.131 83.7539 21.5073 83.1842 22.1628L86.203 24.787ZM84.2441 9.96769C85.932 8.0259 84.5528 4.99951 81.9799 4.99951V8.99951C81.1223 8.99951 80.6626 7.99072 81.2252 7.34345L84.2441 9.96769ZM79.23 25.1386C79.4743 26.3885 80.405 27.2243 81.3985 27.5294C82.4066 27.8389 83.7047 27.661 84.5974 26.634L81.5786 24.0098C81.8878 23.6541 82.3237 23.6291 82.5727 23.7056C82.8071 23.7776 83.082 23.9942 83.1557 24.3712L79.23 25.1386ZM74.5082 16.1052C75.693 17.331 77.7733 17.4115 78.9927 16.0087L75.9739 13.3844C76.3936 12.9016 77.0465 12.9759 77.3841 13.3252L74.5082 16.1052ZM78.7671 18.7283C77.9952 19.6163 77.8392 20.8333 78.2541 21.8569L81.9611 20.3543C82.0846 20.6588 82.0488 21.0502 81.7859 21.3526L78.7671 18.7283ZM52.9484 28.9281C53.3476 28.4689 53.5755 27.9242 53.6583 27.3859L49.7047 26.7781C49.7269 26.6339 49.7919 26.4623 49.9295 26.3039L52.9484 28.9281ZM39.3517 6.96635C39.2857 6.72521 39.1649 6.4093 38.9348 6.0976L35.7168 8.4735C35.5779 8.28528 35.519 8.11505 35.4935 8.02196L39.3517 6.96635ZM42.3216 27.5834C41.831 28.1477 41.5513 28.8967 41.5933 29.6888L45.5877 29.477C45.603 29.7659 45.5005 30.0236 45.3405 30.2076L42.3216 27.5834ZM32.6952 23.0153C32.8907 22.2648 33.6099 21.7423 34.4011 21.7832C35.1801 21.8235 35.8269 22.3984 35.9573 23.1414L32.0175 23.8328C32.2133 24.9487 33.134 25.723 34.1945 25.7779C35.2671 25.8333 36.2751 25.1405 36.5661 24.0236L32.6952 23.0153ZM73.363 17.8064C72.9678 17.3753 73.0234 16.7785 73.3297 16.4262L76.3486 19.0504C77.2987 17.9574 77.37 16.2581 76.3117 15.1036L73.363 17.8064ZM36.6527 5.02077C35.5107 4.96068 34.4913 5.62893 34.0541 6.63137L37.7206 8.23044C37.5113 8.71038 37.0153 9.04539 36.4425 9.01525L36.6527 5.02077ZM92.8233 8.65557C92.6333 8.87406 92.358 8.99951 92.0686 8.99951V4.99951C91.2001 4.99951 90.3742 5.37588 89.8044 6.03133L92.8233 8.65557ZM44.5491 22.7269C45.0664 21.2314 44.3307 19.8902 43.5463 19.1917C42.7609 18.4922 41.2313 17.857 39.7622 18.7976L41.919 22.1663C41.6721 22.3244 41.3957 22.3517 41.1927 22.3146C41.0169 22.2826 40.9227 22.2115 40.8861 22.1789C40.8475 22.1445 40.7967 22.0858 40.7593 21.9787C40.718 21.8604 40.6875 21.6545 40.7689 21.4192L44.5491 22.7269ZM92.0439 8.83927C92.1419 9.1451 92.0843 9.50569 91.8455 9.78038L88.8266 7.15615C88.1201 7.96895 87.9191 9.07515 88.2347 10.06L92.0439 8.83927ZM57.6594 17.4117C57.7969 17.2535 57.9576 17.1654 58.097 17.1234L59.2515 20.9531C59.7723 20.7961 60.2793 20.4948 60.6782 20.036L57.6594 17.4117ZM35.2523 25.9329C35.7657 25.6055 36.5591 25.8003 36.7836 26.5059L32.9719 27.7187C33.5834 29.6407 35.8135 30.3192 37.4031 29.3054L35.2523 25.9329ZM74.6561 10.9315C75.0442 11.2193 75.2039 11.8515 74.7869 12.3312L71.7681 9.70696C70.5564 11.1008 70.9127 13.1354 72.2737 14.1446L74.6561 10.9315ZM88.7344 13.3593C88.4832 13.6483 88.0878 13.7596 87.7339 13.6782C87.3679 13.594 87.0243 13.2948 86.9298 12.8751L90.8321 11.9963C90.2714 9.50666 87.2273 8.99603 85.7156 10.735L88.7344 13.3593ZM95.692 9.34686C94.8236 9.34686 93.9977 9.72323 93.4279 10.3787L96.4468 13.0029C96.2568 13.2214 95.9815 13.3469 95.692 13.3469V9.34686ZM33.6276 22.8635C32.6566 23.5652 32.1774 24.8 32.4819 26.0023L36.3595 25.0201C36.4679 25.4481 36.2941 25.8717 35.9705 26.1056L33.6276 22.8635ZM72.1459 15.3693C71.8373 15.7243 71.2473 15.8615 70.7645 15.5216L73.0674 12.251C71.7757 11.3415 70.0847 11.6435 69.127 12.7451L72.1459 15.3693ZM37.9728 5.32921C37.8738 5.28485 37.7846 5.25052 37.7216 5.22702L36.3234 8.9747C36.3358 8.97933 36.3423 8.98186 36.3451 8.98298C36.3477 8.98405 36.3448 8.98294 36.3379 8.97985L37.9728 5.32921ZM89.1465 13.7632C89.5616 16.1411 92.688 17.3269 94.466 15.2815L91.4472 12.6573C91.7454 12.3142 92.1793 12.2691 92.4591 12.3542C92.728 12.436 93.0183 12.6825 93.0869 13.0753L89.1465 13.7632ZM66.2144 13.6673C67.6354 12.0327 66.927 9.17981 64.4553 8.82168L63.8817 12.7803C63.456 12.7187 63.1262 12.4047 63.0051 12.0463C62.8895 11.7041 62.9576 11.3168 63.1956 11.0431L66.2144 13.6673ZM42.8522 25.8303C43.5133 25.4086 43.9625 24.7589 44.1502 24.0418L40.2806 23.0289C40.3371 22.8129 40.4769 22.6009 40.7013 22.4578L42.8522 25.8303Z" fill="white" mask="url(#path-2-outside-1_2115_4630)"/>
</g>
<defs>
<filter id="filter0_d_2115_4630" x="-0.00390625" y="0.999512" width="125.078" height="46.8428" filterUnits="userSpaceOnUse" color-interpolation-filters="sRGB">
<feFlood flood-opacity="0" result="BackgroundImageFix"/>
<feColorMatrix in="SourceAlpha" type="matrix" values="0 0 0 0 0 0 0 0 0 0 0 0 0 0 0 0 0 0 127 0" result="hardAlpha"/>
<feOffset dx="2" dy="4"/>
<feGaussianBlur stdDeviation="4"/>
<feComposite in2="hardAlpha" operator="out"/>
<feColorMatrix type="matrix" values="0 0 0 0 1 0 0 0 0 0.665306 0 0 0 0 0 0 0 0 0.25 0"/>
<feBlend mode="normal" in2="BackgroundImageFix" result="effect1_dropShadow_2115_4630"/>
<feBlend mode="normal" in="SourceGraphic" in2="effect1_dropShadow_2115_4630" result="shape"/>
</filter>
</defs>
</svg>
