<svg width="43" height="40" viewBox="0 0 43 40" fill="none" xmlns="http://www.w3.org/2000/svg">
<path d="M0 4C0 1.79086 1.79086 0 4 0H39C41.2091 0 43 1.79086 43 4V36C43 38.2091 41.2091 40 39 40H4C1.79086 40 0 38.2091 0 36V4Z" fill="#EDF5F6"/>
<path d="M11.5 16.6699V25.2499C11.5 26.0456 11.8161 26.8086 12.3787 27.3712C12.9413 27.9339 13.7044 28.2499 14.5 28.2499H29.5C30.2956 28.2499 31.0587 27.9339 31.6213 27.3712C32.1839 26.8086 32.5 26.0456 32.5 25.2499V16.6699L23.572 22.1629C23.0992 22.4538 22.5551 22.6078 22 22.6078C21.4449 22.6078 20.9008 22.4538 20.428 22.1629L11.5 16.6699Z" fill="#023E44"/>
<path d="M32.5 14.908V14.75C32.5 13.9544 32.1839 13.1913 31.6213 12.6287C31.0587 12.0661 30.2956 11.75 29.5 11.75H14.5C13.7044 11.75 12.9413 12.0661 12.3787 12.6287C11.8161 13.1913 11.5 13.9544 11.5 14.75V14.908L21.214 20.886C21.4504 21.0314 21.7225 21.1084 22 21.1084C22.2775 21.1084 22.5496 21.0314 22.786 20.886L32.5 14.908Z" fill="#023E44"/>
</svg>
