<svg width="80" height="80" viewBox="0 0 80 80" fill="none" xmlns="http://www.w3.org/2000/svg">
<rect width="80" height="80" rx="8" fill="#EDF5F6"/>
<path d="M27 33.5C27 32.672 27.672 32 28.5 32H36.5C37.328 32 38 32.672 38 33.5V38.5C38 39.328 37.328 40 36.5 40H28.5C28.1022 40 27.7206 39.842 27.4393 39.5607C27.158 39.2794 27 38.8978 27 38.5V33.5ZM43 35.5C43 34.672 43.672 34 44.5 34H51.5C52.328 34 53 34.672 53 35.5V46.5C53 47.328 52.328 48 51.5 48H44.5C44.1022 48 43.7206 47.842 43.4393 47.5607C43.158 47.2794 43 46.8978 43 46.5V35.5ZM29 45.5C29 44.672 29.672 44 30.5 44H37.5C38.328 44 39 44.672 39 45.5V48.5C39 49.328 38.328 50 37.5 50H30.5C30.1022 50 29.7206 49.842 29.4393 49.5607C29.158 49.2794 29 48.8978 29 48.5V45.5Z" stroke="#19585C" stroke-width="2" stroke-linecap="round" stroke-linejoin="round"/>
</svg>
