<svg width="80" height="80" viewBox="0 0 80 80" fill="none" xmlns="http://www.w3.org/2000/svg">
<rect width="80" height="80" rx="8" fill="#EDF5F6"/>
<path d="M43 32.116C43 31.6427 43.248 31.2147 43.5347 30.8373C43.8293 30.4507 44 29.992 44 29.5C44 28.1187 42.6573 27 41 27C39.3427 27 38 28.12 38 29.5C38 29.992 38.1707 30.4507 38.4653 30.8373C38.752 31.2147 39 31.6427 39 32.116C39.0006 32.2303 38.9782 32.3436 38.9341 32.4491C38.8901 32.5546 38.8253 32.6502 38.7435 32.7302C38.6618 32.8101 38.5649 32.8729 38.4585 32.9146C38.352 32.9564 38.2383 32.9764 38.124 32.9733C36.2689 32.9199 34.4169 32.7864 32.5733 32.5733C32.8213 34.724 32.964 36.9067 32.9933 39.116C32.9946 39.2319 32.9728 39.3468 32.9292 39.4542C32.8856 39.5616 32.8212 39.6592 32.7395 39.7415C32.6579 39.8237 32.5608 39.8889 32.4537 39.9333C32.3467 39.9777 32.2319 40.0004 32.116 40C31.6427 40 31.2147 39.752 30.8373 39.4653C30.4552 39.1668 29.9849 39.0032 29.5 39C28.1187 39 27 40.3427 27 42C27 43.6573 28.12 45 29.5 45C29.992 45 30.4507 44.8293 30.8373 44.5347C31.2147 44.248 31.6427 44 32.116 44C32.5293 44 32.856 44.3467 32.8253 44.76C32.6595 47.0207 32.3738 49.2709 31.9693 51.5013C33.9933 51.7547 36.0467 51.9133 38.124 51.9733C38.2383 51.9764 38.352 51.9564 38.4585 51.9146C38.5649 51.8729 38.6618 51.8101 38.7435 51.7302C38.8253 51.6502 38.8901 51.5546 38.9341 51.4491C38.9782 51.3436 39.0006 51.2303 39 51.116C39 50.6427 38.752 50.2147 38.4653 49.8373C38.1668 49.4552 38.0032 48.9849 38 48.5C38 47.12 39.344 46 41 46C42.6573 46 44 47.12 44 48.5C44 48.992 43.8293 49.4507 43.5347 49.8373C43.248 50.2147 43.0013 50.6427 43.0013 51.116C43.0013 51.56 43.3707 51.9147 43.8147 51.8893C46.2406 51.7467 48.6565 51.4662 51.0507 51.0493C51.4129 48.967 51.6719 46.868 51.8267 44.76C51.8336 44.6626 51.8204 44.5647 51.7878 44.4726C51.7552 44.3806 51.704 44.2962 51.6373 44.2248C51.5705 44.1535 51.4898 44.0967 51.4001 44.058C51.3104 44.0193 51.2137 43.9996 51.116 44C50.6427 44 50.2147 44.248 49.8373 44.5347C49.4507 44.8293 48.992 45 48.5 45C47.12 45 46 43.6573 46 42C46 40.3427 47.12 39 48.5 39C48.9933 39 49.4507 39.1707 49.8373 39.4653C50.2147 39.752 50.6427 40 51.1173 40C51.2332 40.0004 51.348 39.9777 51.455 39.9333C51.5621 39.8889 51.6592 39.8237 51.7409 39.7415C51.8225 39.6592 51.887 39.5616 51.9305 39.4542C51.9741 39.3468 51.9959 39.2319 51.9947 39.116C51.9626 36.7265 51.7979 34.3406 51.5013 31.9693C48.9867 32.4253 46.4213 32.7347 43.8133 32.888C43.7084 32.8938 43.6033 32.8781 43.5047 32.8418C43.406 32.8055 43.3158 32.7495 43.2396 32.677C43.1634 32.6046 43.1029 32.5173 43.0617 32.4206C43.0205 32.3239 42.9995 32.2211 43 32.116Z" stroke="#19585C" stroke-width="2" stroke-linecap="round" stroke-linejoin="round"/>
</svg>
